<?xml version="1.0" encoding="UTF-8" standalone="no"?>
<svg
   xmlns:dc="http://purl.org/dc/elements/1.1/"
   xmlns:cc="http://creativecommons.org/ns#"
   xmlns:rdf="http://www.w3.org/1999/02/22-rdf-syntax-ns#"
   xmlns:svg="http://www.w3.org/2000/svg"
   xmlns="http://www.w3.org/2000/svg"
   viewBox="0 0 819.35498 242.095"
   height="242.095"
   width="819.35498"
   xml:space="preserve"
   version="1.1"
   id="svg2"><metadata
     id="metadata8"><rdf:RDF><cc:Work
         rdf:about=""><dc:format>image/svg+xml</dc:format><dc:type
           rdf:resource="http://purl.org/dc/dcmitype/StillImage" /><dc:title></dc:title></cc:Work></rdf:RDF></metadata><defs
     id="defs6"><clipPath
       id="clipPath16"
       clipPathUnits="userSpaceOnUse"><path
         style="clip-rule:evenodd"
         id="path18"
         d="m -9,-9 860,0 0,614 -860,0 0,-614 z" /></clipPath></defs><g
     transform="matrix(1.25,0,0,-1.25,-113.34125,485.57375)"
     id="g10"><g
       id="g12"><g
         clip-path="url(#clipPath16)"
         id="g14"><g
           transform="scale(1.26417,1.24988)"
           id="g20"><path
             id="path22"
             style="fill:none;stroke:#9e9e9e;stroke-width:4.07229996;stroke-linecap:round;stroke-linejoin:round;stroke-miterlimit:22.92558479;stroke-dasharray:none;stroke-opacity:1"
             d="m 404.6409,261.3756 131.1202,0 c 4.3684,-0.0595 7.4548,-4.6828 7.2663,-8.7911 l 0,-66.31" /></g><g
           transform="scale(1.30452,1.17381)"
           id="g24"><path
             id="path26"
             style="fill:none;stroke:#9e9e9e;stroke-width:4.33620024;stroke-linecap:round;stroke-linejoin:round;stroke-miterlimit:22.92558479;stroke-dasharray:none;stroke-opacity:1"
             d="m 417.3616,306.6766 0,-100.9394 c -0.0714,-5.4681 2.3655,-7.8347 7.1683,-7.7556 l 58.2774,0 c 4.0473,-0.5757 7.7718,3.5957 7.3406,7.8344 l 0,121.5725" /></g><g
           transform="scale(1.30532,1.30532)"
           id="g28"><path
             id="path30"
             style="fill:#3e3285;fill-opacity:1;fill-rule:evenodd;stroke:#9e9e9e;stroke-width:3.8993001;stroke-linecap:round;stroke-linejoin:round;stroke-miterlimit:22.92558479;stroke-dasharray:none;stroke-opacity:1"
             d="m 417.0762,258.245 c 4.5714,0 8.2771,-3.7057 8.2771,-8.2772 0,-4.5714 -3.7057,-8.2774 -8.2771,-8.2774 -4.5715,0 -8.2772,3.706 -8.2772,8.2774 0,4.5715 3.7057,8.2772 8.2772,8.2772 z" /></g><g
           transform="scale(1.30532,1.30532)"
           id="g32"><path
             id="path34"
             style="fill:#de1381;fill-opacity:1;fill-rule:evenodd;stroke:#9e9e9e;stroke-width:3.8993001;stroke-linecap:round;stroke-linejoin:round;stroke-miterlimit:22.92558479;stroke-dasharray:none;stroke-opacity:1"
             d="m 489.7706,258.245 c 4.5715,0 8.2772,-3.7057 8.2772,-8.2772 0,-4.5714 -3.7057,-8.2774 -8.2772,-8.2774 -4.5714,0 -8.2774,3.706 -8.2774,8.2774 0,4.5715 3.706,8.2772 8.2774,8.2772 z" /></g><g
           transform="scale(-1.26417,1.24988)"
           id="g36"><path
             id="path38"
             style="fill:none;stroke:#9e9e9e;stroke-width:4.07229996;stroke-linecap:round;stroke-linejoin:round;stroke-miterlimit:22.92558479;stroke-dasharray:none;stroke-opacity:1"
             d="m -587.6113,223.4906 112.1562,0 c 4.3685,-0.0596 7.4548,-4.6832 7.2663,-8.7911 l 0,-54.9703" /></g><g
           transform="scale(1.30532,1.30532)"
           id="g40"><path
             id="path42"
             style="fill:#4e897c;fill-opacity:1;fill-rule:evenodd;stroke:#9e9e9e;stroke-width:3.8993001;stroke-linecap:round;stroke-linejoin:round;stroke-miterlimit:22.92558479;stroke-dasharray:none;stroke-opacity:1"
             d="m 453.0886,186.376 c 4.5715,0 8.2772,-3.7058 8.2772,-8.2772 0,-4.5714 -3.7057,-8.2772 -8.2772,-8.2772 -4.5714,0 -8.2771,3.7058 -8.2771,8.2772 0,4.5714 3.7057,8.2772 8.2771,8.2772 z" /></g><g
           transform="scale(1.30532,1.30532)"
           id="g44"><path
             id="path46"
             style="fill:#ffffff;fill-opacity:1;fill-rule:evenodd;stroke:#9e9e9e;stroke-width:3.8993001;stroke-linecap:round;stroke-linejoin:round;stroke-miterlimit:22.92558479;stroke-dasharray:none;stroke-opacity:1"
             d="m 489.9271,222.298 c 4.5715,0 8.2772,-3.7057 8.2772,-8.2771 0,-4.5715 -3.7057,-8.2769 -8.2772,-8.2769 -4.5714,0 -8.2771,3.7054 -8.2771,8.2769 0,4.5714 3.7057,8.2771 8.2771,8.2771 z" /></g><g
           transform="scale(1.30532,1.30532)"
           id="g48"><path
             id="path50"
             style="fill:#b0cb21;fill-opacity:1;fill-rule:evenodd;stroke:#9e9e9e;stroke-width:3.8993001;stroke-linecap:round;stroke-linejoin:round;stroke-miterlimit:22.92558479;stroke-dasharray:none;stroke-opacity:1"
             d="m 526.502,222.2977 c 4.5714,0 8.2771,-3.7054 8.2771,-8.2768 0,-4.5718 -3.7057,-8.2772 -8.2771,-8.2772 -4.5714,0 -8.2769,3.7054 -8.2769,8.2772 0,4.5714 3.7055,8.2768 8.2769,8.2768 z" /></g><text
           id="text52"
           style="font-variant:normal;font-weight:600;font-size:90.82037354px;font-family:'Source Sans Pro';-inkscape-font-specification:SourceSansPro-Semibold;writing-mode:lr-tb;fill:#2b2b2a;fill-opacity:1;fill-rule:nonzero;stroke:none"
           transform="matrix(1,0,0,-0.89928058,89.5422,230.7852)"><tspan
             id="tspan54"
             y="0"
             x="0 55.85376 86.004524">Sim</tspan></text>
<text
           id="text56"
           style="font-variant:normal;font-weight:600;font-size:90.91838074px;font-family:'Source Sans Pro';-inkscape-font-specification:SourceSansPro-Semibold;writing-mode:lr-tb;fill:#9e9e9e;fill-opacity:1;fill-rule:nonzero;stroke:none"
           transform="matrix(1,0,0,-0.89831117,257.6038,230.7852)"><tspan
             id="tspan58"
             y="0"
             x="0 54.278275 100.37389 151.28819 193.29248">Bench</tspan></text>
</g></g></g></svg>